<svg width="363" height="47" viewBox="0 0 363 47" fill="none" xmlns="http://www.w3.org/2000/svg">
<path d="M352.888 13.6378C352.888 13.4045 352.872 13.2378 352.838 13.1378C352.838 13.0378 352.838 12.9545 352.838 12.8878C352.838 12.7878 352.838 12.6711 352.838 12.5378C352.838 12.4045 352.838 12.2045 352.838 11.9378C352.838 11.8711 352.688 11.8378 352.388 11.8378C352.122 11.8045 351.788 11.8045 351.388 11.8378C351.022 11.8711 350.655 11.9045 350.288 11.9378C349.955 11.9711 349.722 11.9878 349.588 11.9878C349.188 12.0211 348.855 12.0545 348.588 12.0878C348.322 12.0878 348.072 12.0878 347.838 12.0878C347.605 12.0878 347.355 12.0878 347.088 12.0878C346.822 12.0545 346.488 12.0211 346.088 11.9878C345.955 16.3878 345.922 20.6378 345.988 24.7378C346.088 28.8378 346.138 32.9378 346.138 37.0378C346.938 36.9711 347.622 36.9545 348.188 36.9878C348.788 37.0211 349.338 37.0378 349.838 37.0378C350.338 37.0711 350.822 37.0711 351.288 37.0378C351.755 37.0045 352.272 36.9045 352.838 36.7378V36.5378C352.838 35.3045 352.822 34.1545 352.788 33.0878C352.788 31.9878 352.788 30.9211 352.788 29.8878C352.788 28.8211 352.772 27.7711 352.738 26.7378C352.705 25.7045 352.672 24.6045 352.638 23.4378C352.605 22.5045 352.738 21.7878 353.038 21.2878C353.338 20.7878 353.755 20.4211 354.288 20.1878C354.855 19.9545 355.505 19.8378 356.238 19.8378C357.005 19.8378 357.838 19.8878 358.738 19.9878C358.772 19.9878 358.988 20.0211 359.388 20.0878C359.822 20.1545 360.238 20.2378 360.638 20.3378C360.805 20.4045 360.972 20.4711 361.138 20.5378C361.338 20.5711 361.522 20.6211 361.688 20.6878L362.138 20.8378C362.105 20.3378 362.088 19.8045 362.088 19.2378C362.088 18.6711 362.088 18.0545 362.088 17.3878C362.088 16.6878 362.088 15.9045 362.088 15.0378C362.122 14.1711 362.138 13.1711 362.138 12.0378C362.138 12.0045 361.888 11.9878 361.388 11.9878C360.922 11.9545 360.338 11.9545 359.638 11.9878C358.938 12.0211 358.188 12.1045 357.388 12.2378C356.588 12.3378 355.872 12.4878 355.238 12.6878C354.772 12.8545 354.288 13.0378 353.788 13.2378C353.322 13.4378 353.022 13.5711 352.888 13.6378Z" fill="white"/>
<path d="M329.821 24.3378C330.155 24.4045 330.688 24.4545 331.421 24.4878C332.155 24.5211 332.971 24.5378 333.871 24.5378C334.805 24.5378 335.771 24.5211 336.771 24.4878C337.771 24.4545 338.705 24.4045 339.571 24.3378C340.471 24.2711 341.238 24.2045 341.871 24.1378C342.538 24.0711 342.988 24.0045 343.221 23.9378C343.321 22.5378 343.321 21.1545 343.221 19.7878C343.121 18.4211 342.821 17.1711 342.321 16.0378C341.855 14.9045 341.155 13.9378 340.221 13.1378C339.288 12.3378 338.055 11.8045 336.521 11.5378C335.321 11.2378 334.088 11.1045 332.821 11.1378C331.555 11.1711 330.355 11.3711 329.221 11.7378C328.088 12.0711 327.071 12.5878 326.171 13.2878C325.271 13.9545 324.605 14.7711 324.171 15.7378C323.771 16.8378 323.505 17.9711 323.371 19.1378C323.271 20.2711 323.171 21.4545 323.071 22.6878C323.005 24.0545 323.038 25.4211 323.171 26.7878C323.305 28.1545 323.555 29.4545 323.921 30.6878C324.288 31.8878 324.771 33.0045 325.371 34.0378C325.971 35.0378 326.721 35.8545 327.621 36.4878C328.421 36.9545 329.288 37.2545 330.221 37.3878C331.155 37.3878 332.171 37.4211 333.271 37.4878C334.405 37.5545 335.505 37.5545 336.571 37.4878C337.638 37.4211 338.621 37.2211 339.521 36.8878C340.421 36.5545 341.155 35.9878 341.721 35.1878C341.955 34.9878 342.138 34.6378 342.271 34.1378C342.438 33.6045 342.571 32.9878 342.671 32.2878C342.771 31.5545 342.855 30.7711 342.921 29.9378C342.988 29.1045 343.055 28.2545 343.121 27.3878C342.755 27.2878 342.288 27.2378 341.721 27.2378C341.155 27.2045 340.555 27.2045 339.921 27.2378C339.321 27.2711 338.738 27.3045 338.171 27.3378C337.605 27.3378 337.155 27.3211 336.821 27.2878C336.888 28.6545 336.671 29.6878 336.171 30.3878C335.705 31.0545 335.121 31.4545 334.421 31.5878C333.721 31.7211 333.005 31.6045 332.271 31.2378C331.538 30.8711 330.971 30.3045 330.571 29.5378C330.205 28.9378 329.988 28.3211 329.921 27.6878C329.888 27.0545 329.855 26.2378 329.821 25.2378V24.3378ZM335.871 16.5878C336.471 16.8878 336.938 17.3378 337.271 17.9378C337.638 18.5378 337.821 19.1711 337.821 19.8378C337.821 20.1045 337.821 20.2878 337.821 20.3878C337.821 20.4545 337.721 20.5045 337.521 20.5378C337.355 20.5378 337.055 20.5211 336.621 20.4878C336.188 20.4545 335.538 20.4378 334.671 20.4378C333.405 20.4378 332.438 20.4545 331.771 20.4878C331.138 20.4878 330.671 20.4711 330.371 20.4378C330.071 20.3711 329.905 20.2711 329.871 20.1378C329.871 19.9711 329.905 19.7045 329.971 19.3378C330.038 18.9045 330.138 18.4878 330.271 18.0878C330.438 17.6878 330.671 17.3378 330.971 17.0378C331.271 16.7378 331.671 16.5045 332.171 16.3378C332.671 16.1711 333.321 16.0878 334.121 16.0878C334.488 16.0878 334.805 16.1378 335.071 16.2378C335.338 16.3045 335.605 16.4211 335.871 16.5878Z" fill="white"/>
<path d="M313.669 0.537788C313.369 3.57112 313.219 6.60446 313.219 9.63779C313.252 12.6711 313.319 15.7045 313.419 18.7378C313.519 21.7711 313.585 24.8045 313.619 27.8378C313.685 30.8711 313.602 33.8878 313.369 36.8878C313.602 36.8211 314.069 36.8045 314.769 36.8378C315.469 36.8711 316.202 36.8878 316.969 36.8878C317.769 36.9211 318.502 36.9211 319.169 36.8878C319.835 36.8878 320.252 36.7878 320.419 36.5878C320.352 35.2545 320.302 33.6378 320.269 31.7378C320.235 29.8045 320.219 27.7378 320.219 25.5378C320.219 23.3378 320.219 21.0545 320.219 18.6878C320.252 16.3211 320.285 14.0378 320.319 11.8378C320.352 9.63779 320.385 7.57112 320.419 5.63779C320.452 3.70446 320.469 2.05446 320.469 0.687789L313.669 0.537788Z" fill="white"/>
<path d="M298.69 0.587795C298.257 0.521127 297.757 0.487793 297.19 0.487793C296.624 0.487793 296.024 0.50446 295.39 0.537793C294.79 0.537793 294.174 0.55446 293.54 0.587795C292.94 0.587795 292.39 0.587795 291.89 0.587795C291.924 6.65446 291.874 12.6711 291.74 18.6378C291.607 24.6045 291.657 30.6878 291.89 36.8878C292.39 36.9545 292.94 36.9878 293.54 36.9878C294.174 36.9878 294.79 36.9711 295.39 36.9378C295.99 36.9045 296.557 36.8878 297.09 36.8878C297.657 36.8545 298.124 36.8545 298.49 36.8878C298.624 36.1545 298.707 35.3545 298.74 34.4878C298.774 33.5878 298.79 32.7045 298.79 31.8378C298.79 30.9711 298.774 30.1378 298.74 29.3378C298.707 28.5378 298.69 27.8378 298.69 27.2378C299.257 27.9711 299.757 28.7378 300.19 29.5378C300.657 30.3378 301.09 31.1545 301.49 31.9878C301.89 32.7878 302.29 33.6045 302.69 34.4378C303.124 35.2711 303.59 36.0878 304.09 36.8878C304.59 36.9878 305.19 37.0545 305.89 37.0878C306.624 37.1211 307.374 37.1211 308.14 37.0878C308.907 37.0545 309.64 37.0045 310.34 36.9378C311.074 36.9045 311.674 36.8878 312.14 36.8878C310.874 34.3211 309.474 31.8545 307.94 29.4878C306.44 27.0878 304.94 24.6711 303.44 22.2378C304.84 20.3711 306.257 18.5211 307.69 16.6878C309.124 14.8211 310.457 12.9378 311.69 11.0378C311.224 11.0045 310.624 11.0211 309.89 11.0878C309.157 11.1211 308.407 11.1545 307.64 11.1878C306.907 11.1878 306.19 11.1878 305.49 11.1878C304.79 11.1545 304.224 11.0545 303.79 10.8878C303.29 11.4545 302.84 12.0545 302.44 12.6878C302.074 13.3211 301.707 13.9545 301.34 14.5878C300.974 15.1878 300.574 15.7878 300.14 16.3878C299.74 16.9878 299.257 17.5378 298.69 18.0378C298.59 17.2711 298.557 16.2711 298.59 15.0378C298.657 13.8045 298.69 12.6378 298.69 11.5378V0.587795Z" fill="white"/>
<path d="M275.573 24.3378C275.907 24.4045 276.44 24.4545 277.173 24.4878C277.907 24.5211 278.723 24.5378 279.623 24.5378C280.557 24.5378 281.523 24.5211 282.523 24.4878C283.523 24.4545 284.457 24.4045 285.323 24.3378C286.223 24.2711 286.99 24.2045 287.623 24.1378C288.29 24.0711 288.74 24.0045 288.973 23.9378C289.073 22.5378 289.073 21.1545 288.973 19.7878C288.873 18.4211 288.573 17.1711 288.073 16.0378C287.607 14.9045 286.907 13.9378 285.973 13.1378C285.04 12.3378 283.807 11.8045 282.273 11.5378C281.073 11.2378 279.84 11.1045 278.573 11.1378C277.307 11.1711 276.107 11.3711 274.973 11.7378C273.84 12.0711 272.823 12.5878 271.923 13.2878C271.023 13.9545 270.357 14.7711 269.923 15.7378C269.523 16.8378 269.257 17.9711 269.123 19.1378C269.023 20.2711 268.923 21.4545 268.823 22.6878C268.757 24.0545 268.79 25.4211 268.923 26.7878C269.057 28.1545 269.307 29.4545 269.673 30.6878C270.04 31.8878 270.523 33.0045 271.123 34.0378C271.723 35.0378 272.473 35.8545 273.373 36.4878C274.173 36.9545 275.04 37.2545 275.973 37.3878C276.907 37.3878 277.923 37.4211 279.023 37.4878C280.157 37.5545 281.257 37.5545 282.323 37.4878C283.39 37.4211 284.373 37.2211 285.273 36.8878C286.173 36.5545 286.907 35.9878 287.473 35.1878C287.707 34.9878 287.89 34.6378 288.023 34.1378C288.19 33.6045 288.323 32.9878 288.423 32.2878C288.523 31.5545 288.607 30.7711 288.673 29.9378C288.74 29.1045 288.807 28.2545 288.873 27.3878C288.507 27.2878 288.04 27.2378 287.473 27.2378C286.907 27.2045 286.307 27.2045 285.673 27.2378C285.073 27.2711 284.49 27.3045 283.923 27.3378C283.357 27.3378 282.907 27.3211 282.573 27.2878C282.64 28.6545 282.423 29.6878 281.923 30.3878C281.457 31.0545 280.873 31.4545 280.173 31.5878C279.473 31.7211 278.757 31.6045 278.023 31.2378C277.29 30.8711 276.723 30.3045 276.323 29.5378C275.957 28.9378 275.74 28.3211 275.673 27.6878C275.64 27.0545 275.607 26.2378 275.573 25.2378V24.3378ZM281.623 16.5878C282.223 16.8878 282.69 17.3378 283.023 17.9378C283.39 18.5378 283.573 19.1711 283.573 19.8378C283.573 20.1045 283.573 20.2878 283.573 20.3878C283.573 20.4545 283.473 20.5045 283.273 20.5378C283.107 20.5378 282.807 20.5211 282.373 20.4878C281.94 20.4545 281.29 20.4378 280.423 20.4378C279.157 20.4378 278.19 20.4545 277.523 20.4878C276.89 20.4878 276.423 20.4711 276.123 20.4378C275.823 20.3711 275.657 20.2711 275.623 20.1378C275.623 19.9711 275.657 19.7045 275.723 19.3378C275.79 18.9045 275.89 18.4878 276.023 18.0878C276.19 17.6878 276.423 17.3378 276.723 17.0378C277.023 16.7378 277.423 16.5045 277.923 16.3378C278.423 16.1711 279.073 16.0878 279.873 16.0878C280.24 16.0878 280.557 16.1378 280.823 16.2378C281.09 16.3045 281.357 16.4211 281.623 16.5878Z" fill="white"/>
<path d="M241.994 14.5878C241.96 14.1211 241.944 13.7045 241.944 13.3378C241.977 12.9711 241.961 12.5045 241.894 11.9378C241.894 11.8378 241.76 11.7878 241.494 11.7878C241.227 11.7545 240.927 11.7545 240.594 11.7878C240.26 11.8211 239.927 11.8711 239.594 11.9378C239.26 11.9711 239.027 11.9878 238.894 11.9878C238.494 12.0211 238.161 12.0545 237.894 12.0878C237.627 12.0878 237.377 12.0878 237.144 12.0878C236.911 12.0878 236.661 12.0878 236.394 12.0878C236.127 12.0545 235.794 12.0211 235.394 11.9878C235.261 16.3878 235.227 20.6378 235.294 24.7378C235.394 28.8378 235.444 32.9378 235.444 37.0378C236.244 36.9711 236.911 36.9545 237.444 36.9878C237.977 37.0211 238.461 37.0378 238.894 37.0378C239.327 37.0711 239.744 37.0711 240.144 37.0378C240.577 37.0045 241.077 36.9045 241.644 36.7378V36.5378C241.777 35.4378 241.844 34.3378 241.844 33.2378C241.844 32.1378 241.81 31.0378 241.744 29.9378C241.71 28.8045 241.677 27.6878 241.644 26.5878C241.611 25.4545 241.627 24.3045 241.694 23.1378C241.761 22.2378 241.994 21.5711 242.394 21.1378C242.794 20.6711 243.244 20.3711 243.744 20.2378C244.244 20.0711 244.744 20.0378 245.244 20.1378C245.777 20.2045 246.177 20.3045 246.444 20.4378C246.477 20.4711 246.51 20.4878 246.544 20.4878C246.577 20.4878 246.611 20.5045 246.644 20.5378C246.911 20.7378 247.11 21.0211 247.244 21.3878C247.41 21.7545 247.527 22.1711 247.594 22.6378C247.694 23.1045 247.76 23.5878 247.794 24.0878C247.827 24.5545 247.861 24.9878 247.894 25.3878C247.961 26.2878 247.994 27.2545 247.994 28.2878C248.027 29.3211 248.027 30.3545 247.994 31.3878C247.994 32.4211 247.994 33.4211 247.994 34.3878C247.994 35.3545 248.027 36.2211 248.094 36.9878C249.26 36.9878 250.294 36.9878 251.194 36.9878C252.127 37.0211 253.177 36.9545 254.344 36.7878C254.277 35.7878 254.244 34.6378 254.244 33.3378C254.277 32.0045 254.31 30.6378 254.344 29.2378C254.377 27.8045 254.411 26.3711 254.444 24.9378C254.477 23.4711 254.477 22.0878 254.444 20.7878C254.744 20.5545 255.061 20.3878 255.394 20.2878C255.761 20.1545 256.111 20.0878 256.444 20.0878C256.811 20.0878 257.144 20.1211 257.444 20.1878C257.744 20.2545 257.994 20.3378 258.194 20.4378C258.227 20.4711 258.261 20.4878 258.294 20.4878C258.327 20.4878 258.36 20.5045 258.394 20.5378C258.66 20.7378 258.86 21.0211 258.994 21.3878C259.16 21.7545 259.277 22.1711 259.344 22.6378C259.444 23.1045 259.511 23.5878 259.544 24.0878C259.577 24.5545 259.61 24.9878 259.644 25.3878C259.71 26.2878 259.744 27.2545 259.744 28.2878C259.777 29.3211 259.777 30.3545 259.744 31.3878C259.744 32.4211 259.744 33.4211 259.744 34.3878C259.744 35.3545 259.777 36.2211 259.844 36.9878C261.01 36.9878 262.044 36.9878 262.944 36.9878C263.877 37.0211 264.927 36.9545 266.094 36.7878C266.027 35.6545 266.011 34.3378 266.044 32.8378C266.077 31.3378 266.11 29.7878 266.144 28.1878C266.177 26.5545 266.194 24.9545 266.194 23.3878C266.227 21.7878 266.21 20.3211 266.144 18.9878C266.11 17.6545 265.994 16.5211 265.794 15.5878C265.627 14.6211 265.377 13.9878 265.044 13.6878C264.344 13.0878 263.561 12.6711 262.694 12.4378C261.827 12.2045 260.927 12.1045 259.994 12.1378C259.094 12.1711 258.21 12.3378 257.344 12.6378C256.477 12.9378 255.694 13.3378 254.994 13.8378C254.827 13.9711 254.627 14.1045 254.394 14.2378C254.161 14.3378 253.96 14.4378 253.794 14.5378C253.627 14.1378 253.46 13.8545 253.294 13.6878C252.594 13.0878 251.811 12.6711 250.944 12.4378C250.077 12.2045 249.177 12.1045 248.244 12.1378C247.344 12.1711 246.46 12.3378 245.594 12.6378C244.727 12.9378 243.944 13.3378 243.244 13.8378C243.077 13.9711 242.86 14.1045 242.594 14.2378C242.36 14.3711 242.16 14.4878 241.994 14.5878Z" fill="white"/>
<path d="M219.177 24.3378C219.51 24.4045 220.044 24.4545 220.777 24.4878C221.51 24.5211 222.327 24.5378 223.227 24.5378C224.16 24.5378 225.127 24.5211 226.127 24.4878C227.127 24.4545 228.06 24.4045 228.927 24.3378C229.827 24.2711 230.594 24.2045 231.227 24.1378C231.894 24.0711 232.344 24.0045 232.577 23.9378C232.677 22.5378 232.677 21.1545 232.577 19.7878C232.477 18.4211 232.177 17.1711 231.677 16.0378C231.21 14.9045 230.51 13.9378 229.577 13.1378C228.644 12.3378 227.41 11.8045 225.877 11.5378C224.677 11.2378 223.444 11.1045 222.177 11.1378C220.91 11.1711 219.71 11.3711 218.577 11.7378C217.444 12.0711 216.427 12.5878 215.527 13.2878C214.627 13.9545 213.96 14.7711 213.527 15.7378C213.127 16.8378 212.86 17.9711 212.727 19.1378C212.627 20.2711 212.527 21.4545 212.427 22.6878C212.36 24.0545 212.394 25.4211 212.527 26.7878C212.66 28.1545 212.91 29.4545 213.277 30.6878C213.644 31.8878 214.127 33.0045 214.727 34.0378C215.327 35.0378 216.077 35.8545 216.977 36.4878C217.777 36.9545 218.644 37.2545 219.577 37.3878C220.51 37.3878 221.527 37.4211 222.627 37.4878C223.76 37.5545 224.86 37.5545 225.927 37.4878C226.994 37.4211 227.977 37.2211 228.877 36.8878C229.777 36.5545 230.51 35.9878 231.077 35.1878C231.31 34.9878 231.494 34.6378 231.627 34.1378C231.794 33.6045 231.927 32.9878 232.027 32.2878C232.127 31.5545 232.21 30.7711 232.277 29.9378C232.344 29.1045 232.41 28.2545 232.477 27.3878C232.11 27.2878 231.644 27.2378 231.077 27.2378C230.51 27.2045 229.91 27.2045 229.277 27.2378C228.677 27.2711 228.094 27.3045 227.527 27.3378C226.96 27.3378 226.51 27.3211 226.177 27.2878C226.244 28.6545 226.027 29.6878 225.527 30.3878C225.06 31.0545 224.477 31.4545 223.777 31.5878C223.077 31.7211 222.36 31.6045 221.627 31.2378C220.894 30.8711 220.327 30.3045 219.927 29.5378C219.56 28.9378 219.344 28.3211 219.277 27.6878C219.244 27.0545 219.21 26.2378 219.177 25.2378V24.3378ZM225.227 16.5878C225.827 16.8878 226.294 17.3378 226.627 17.9378C226.994 18.5378 227.177 19.1711 227.177 19.8378C227.177 20.1045 227.177 20.2878 227.177 20.3878C227.177 20.4545 227.077 20.5045 226.877 20.5378C226.71 20.5378 226.41 20.5211 225.977 20.4878C225.544 20.4545 224.894 20.4378 224.027 20.4378C222.76 20.4378 221.794 20.4545 221.127 20.4878C220.494 20.4878 220.027 20.4711 219.727 20.4378C219.427 20.3711 219.26 20.2711 219.227 20.1378C219.227 19.9711 219.26 19.7045 219.327 19.3378C219.394 18.9045 219.494 18.4878 219.627 18.0878C219.794 17.6878 220.027 17.3378 220.327 17.0378C220.627 16.7378 221.027 16.5045 221.527 16.3378C222.027 16.1711 222.677 16.0878 223.477 16.0878C223.844 16.0878 224.16 16.1378 224.427 16.2378C224.694 16.3045 224.96 16.4211 225.227 16.5878Z" fill="white"/>
<path d="M215.42 2.23779C215.22 2.20446 214.953 2.18779 214.62 2.18779C214.287 2.15446 213.92 2.13779 213.52 2.13779C212.653 2.13779 211.703 2.17113 210.67 2.23779C209.67 2.27113 208.87 2.35446 208.27 2.48779C207.97 3.15446 207.653 3.98779 207.32 4.98779C206.987 5.98779 206.637 7.00446 206.27 8.03779C205.937 9.07113 205.587 10.0711 205.22 11.0378C204.887 11.9711 204.553 12.7378 204.22 13.3378C203.92 12.7045 203.57 11.9211 203.17 10.9878C202.803 10.0545 202.437 9.07113 202.07 8.03779C201.737 7.00446 201.403 5.98779 201.07 4.98779C200.77 3.98779 200.537 3.12112 200.37 2.38779C200.003 2.22112 199.62 2.12112 199.22 2.08779C198.82 2.02113 198.42 1.98779 198.02 1.98779C197.287 1.98779 196.553 2.03779 195.82 2.13779C195.087 2.23779 194.387 2.28779 193.72 2.28779C194.053 3.68779 194.503 5.10446 195.07 6.53779C195.637 7.97113 196.22 9.40446 196.82 10.8378C197.453 12.2711 198.053 13.7211 198.62 15.1878C199.187 16.6211 199.653 18.0711 200.02 19.5378V19.6378C198.853 22.5711 197.687 25.5211 196.52 28.4878C195.353 31.4211 194.337 34.2378 193.47 36.9378H193.57C193.77 36.9711 193.97 36.9878 194.17 36.9878C194.37 36.9878 194.57 36.9878 194.77 36.9878C195.537 36.9878 196.337 36.9545 197.17 36.8878C198.003 36.8545 198.77 36.8378 199.47 36.8378C199.703 36.8378 199.92 36.8378 200.12 36.8378C200.32 36.8378 200.52 36.8545 200.72 36.8878C201.72 33.9545 202.87 31.0711 204.17 28.2378C205.47 25.3711 206.803 22.5211 208.17 19.6878C209.537 16.8211 210.853 13.9545 212.12 11.0878C213.387 8.22112 214.487 5.28779 215.42 2.28779V2.23779Z" fill="white"/>
<path d="M169.882 0.587795C169.448 0.521127 168.948 0.487793 168.382 0.487793C167.815 0.487793 167.215 0.50446 166.582 0.537793C165.982 0.537793 165.365 0.55446 164.732 0.587795C164.132 0.587795 163.582 0.587795 163.082 0.587795C163.115 6.65446 163.065 12.6711 162.932 18.6378C162.798 24.6045 162.848 30.6878 163.082 36.8878C163.582 36.9545 164.132 36.9878 164.732 36.9878C165.365 36.9878 165.982 36.9711 166.582 36.9378C167.182 36.9045 167.748 36.8878 168.282 36.8878C168.848 36.8545 169.315 36.8545 169.682 36.8878C169.815 36.1545 169.898 35.3545 169.932 34.4878C169.965 33.5878 169.982 32.7045 169.982 31.8378C169.982 30.9711 169.965 30.1378 169.932 29.3378C169.898 28.5378 169.882 27.8378 169.882 27.2378C170.448 27.9711 170.948 28.7378 171.382 29.5378C171.848 30.3378 172.282 31.1545 172.682 31.9878C173.082 32.7878 173.482 33.6045 173.882 34.4378C174.315 35.2711 174.782 36.0878 175.282 36.8878C175.782 36.9878 176.382 37.0545 177.082 37.0878C177.815 37.1211 178.565 37.1211 179.332 37.0878C180.098 37.0545 180.832 37.0045 181.532 36.9378C182.265 36.9045 182.865 36.8878 183.332 36.8878C182.065 34.3211 180.665 31.8545 179.132 29.4878C177.632 27.0878 176.132 24.6711 174.632 22.2378C176.032 20.3711 177.448 18.5211 178.882 16.6878C180.315 14.8211 181.648 12.9378 182.882 11.0378C182.415 11.0045 181.815 11.0211 181.082 11.0878C180.348 11.1211 179.598 11.1545 178.832 11.1878C178.098 11.1878 177.382 11.1878 176.682 11.1878C175.982 11.1545 175.415 11.0545 174.982 10.8878C174.482 11.4545 174.032 12.0545 173.632 12.6878C173.265 13.3211 172.898 13.9545 172.532 14.5878C172.165 15.1878 171.765 15.7878 171.332 16.3878C170.932 16.9878 170.448 17.5378 169.882 18.0378C169.782 17.2711 169.748 16.2711 169.782 15.0378C169.848 13.8045 169.882 12.6378 169.882 11.5378V0.587795Z" fill="white"/>
<path d="M158.73 11.7378C157.664 11.7711 156.747 11.7711 155.98 11.7378C155.214 11.7045 154.614 11.6711 154.18 11.6378C154.014 11.6378 153.764 11.6211 153.43 11.5878C153.13 11.5545 152.914 11.5545 152.78 11.5878V11.6378C152.58 13.6045 152.48 15.6378 152.48 17.7378C152.48 19.8045 152.514 21.9045 152.58 24.0378C152.647 26.1711 152.68 28.3211 152.68 30.4878C152.714 32.6545 152.647 34.7878 152.48 36.8878C152.714 36.8211 153.18 36.8045 153.88 36.8378C154.58 36.8711 155.314 36.8878 156.08 36.8878C156.88 36.9211 157.614 36.9211 158.28 36.8878C158.947 36.8878 159.364 36.7878 159.53 36.5878C159.297 32.5545 159.23 28.4378 159.33 24.2378C159.464 20.0378 159.547 15.9211 159.58 11.8878V11.7378H158.73ZM152.58 0.837791C152.547 2.37112 152.564 3.67112 152.63 4.73779C152.73 5.77112 152.78 6.77112 152.78 7.73779C153.414 7.70446 154.097 7.72112 154.83 7.78779C155.564 7.82112 156.247 7.85446 156.88 7.88779C157.547 7.88779 158.114 7.85446 158.58 7.78779C159.08 7.72112 159.397 7.58779 159.53 7.38779C159.53 6.88779 159.514 6.32112 159.48 5.68779C159.48 5.02112 159.464 4.38779 159.43 3.78779C159.43 3.15446 159.414 2.58779 159.38 2.08779C159.38 1.55446 159.38 1.18779 159.38 0.98779L152.58 0.837791Z" fill="white"/>
<path d="M142.525 18.7378C142.458 20.0378 142.408 21.4878 142.375 23.0878C142.375 24.6878 142.375 26.3211 142.375 27.9878C142.375 29.6545 142.375 31.3045 142.375 32.9378C142.375 34.5711 142.358 36.0878 142.325 37.4878C141.992 37.9545 141.508 38.3211 140.875 38.5878C140.242 38.8545 139.558 39.0545 138.825 39.1878C138.092 39.3545 137.358 39.4545 136.625 39.4878C135.858 39.5211 135.192 39.5211 134.625 39.4878C134.558 39.9545 134.492 40.4711 134.425 41.0378C134.358 41.6045 134.308 42.1878 134.275 42.7878C134.242 43.3878 134.258 43.9878 134.325 44.5878C134.358 45.1878 134.458 45.7378 134.625 46.2378C135.958 46.3045 137.342 46.2878 138.775 46.1878C140.208 46.1211 141.558 45.9378 142.825 45.6378C144.092 45.3378 145.208 44.8878 146.175 44.2878C147.175 43.6878 147.892 42.8711 148.325 41.8378C148.592 40.2378 148.775 38.6878 148.875 37.1878C149.008 35.7211 149.075 34.2711 149.075 32.8378C149.108 31.3711 149.108 29.9045 149.075 28.4378C149.075 26.9378 149.075 25.3711 149.075 23.7378C149.008 23.1378 148.992 22.3378 149.025 21.3378C149.058 20.3045 149.075 19.2378 149.075 18.1378C149.108 17.0045 149.125 15.8878 149.125 14.7878C149.125 13.6545 149.075 12.6878 148.975 11.8878C148.542 11.8211 148.058 11.8045 147.525 11.8378C147.025 11.8711 146.492 11.9211 145.925 11.9878C145.358 12.0211 144.775 12.0545 144.175 12.0878C143.608 12.1211 143.058 12.1045 142.525 12.0378V18.7378ZM142.225 0.837791C142.192 2.37112 142.208 3.67112 142.275 4.73779C142.375 5.77112 142.425 6.77112 142.425 7.73779C143.058 7.70446 143.742 7.72112 144.475 7.78779C145.208 7.82112 145.875 7.85446 146.475 7.88779C147.108 7.88779 147.658 7.85446 148.125 7.78779C148.592 7.72112 148.892 7.58779 149.025 7.38779C149.025 6.88779 149.008 6.32112 148.975 5.68779C148.975 5.02112 148.958 4.38779 148.925 3.78779C148.925 3.15446 148.908 2.58779 148.875 2.08779C148.875 1.55446 148.875 1.18779 148.875 0.98779L142.225 0.837791Z" fill="white"/>
<path d="M120.463 14.0878C120.363 14.4545 120.213 14.9545 120.013 15.5878C119.813 16.1878 119.696 16.6711 119.663 17.0378C119.563 17.6711 119.496 18.2878 119.463 18.8878C119.43 19.4545 119.413 20.0378 119.413 20.6378C119.513 21.7378 119.53 22.9545 119.463 24.2878C119.43 25.6211 119.446 26.9545 119.513 28.2878C119.58 29.5878 119.78 30.8378 120.113 32.0378C120.446 33.2378 121.063 34.2378 121.963 35.0378C123.13 36.2045 124.563 36.9378 126.263 37.2378C127.196 37.2378 128.23 37.2711 129.363 37.3378C130.496 37.4378 131.596 37.4378 132.663 37.3378C133.73 37.2711 134.713 37.0711 135.613 36.7378C136.546 36.4045 137.296 35.8378 137.863 35.0378C138.196 34.7045 138.446 34.0878 138.613 33.1878C138.813 32.2878 138.963 31.2711 139.063 30.1378C139.196 29.0045 139.28 27.8211 139.313 26.5878C139.38 25.3545 139.43 24.2545 139.463 23.2878C139.43 22.1878 139.396 21.1211 139.363 20.0878C139.33 19.0211 139.246 18.0545 139.113 17.1878C138.98 16.2878 138.78 15.5045 138.513 14.8378C138.246 14.1711 137.88 13.6878 137.413 13.3878C136.713 12.7211 135.88 12.2211 134.913 11.8878C133.946 11.5211 132.93 11.3045 131.863 11.2378C131.163 11.1711 130.496 11.1711 129.863 11.2378C129.263 11.2711 128.63 11.2545 127.963 11.1878C127.163 11.1878 126.363 11.2378 125.563 11.3378C124.796 11.4378 124.063 11.6211 123.363 11.8878C122.696 12.1211 122.096 12.4211 121.563 12.7878C121.063 13.1545 120.696 13.5878 120.463 14.0878ZM126.713 19.9878C127.146 19.4545 127.713 19.0878 128.413 18.8878C129.713 18.5878 130.763 18.7045 131.563 19.2378C132.363 19.7711 132.846 20.6211 133.013 21.7878C133.213 22.7545 133.263 23.7878 133.163 24.8878C133.096 25.9545 132.996 27.0211 132.863 28.0878C132.663 28.9211 132.28 29.4711 131.713 29.7378C131.28 29.9711 130.73 30.1378 130.063 30.2378C129.396 30.3045 128.746 30.2711 128.113 30.1378C127.513 29.9711 126.996 29.6878 126.563 29.2878C126.13 28.8545 125.93 28.2545 125.963 27.4878C126.03 26.3211 126.063 25.2211 126.063 24.1878C126.063 23.1211 126.13 22.0545 126.263 20.9878C126.363 20.4545 126.513 20.1211 126.713 19.9878Z" fill="white"/>
<path d="M109.86 0.537788C109.56 3.57112 109.41 6.60446 109.41 9.63779C109.443 12.6711 109.51 15.7045 109.61 18.7378C109.71 21.7711 109.777 24.8045 109.81 27.8378C109.877 30.8711 109.793 33.8878 109.56 36.8878C109.793 36.8211 110.26 36.8045 110.96 36.8378C111.66 36.8711 112.393 36.8878 113.16 36.8878C113.96 36.9211 114.693 36.9211 115.36 36.8878C116.027 36.8878 116.443 36.7878 116.61 36.5878C116.543 35.2545 116.493 33.6378 116.46 31.7378C116.427 29.8045 116.41 27.7378 116.41 25.5378C116.41 23.3378 116.41 21.0545 116.41 18.6878C116.443 16.3211 116.477 14.0378 116.51 11.8378C116.543 9.63779 116.577 7.57112 116.61 5.63779C116.643 3.70446 116.66 2.05446 116.66 0.687789L109.86 0.537788Z" fill="white"/>
<path d="M87.7481 14.0878C87.6481 14.4545 87.4981 14.9545 87.2981 15.5878C87.0981 16.1878 86.9815 16.6711 86.9481 17.0378C86.8481 17.6711 86.7815 18.2878 86.7481 18.8878C86.7148 19.4545 86.6981 20.0378 86.6981 20.6378C86.7981 21.7378 86.8148 22.9545 86.7481 24.2878C86.7148 25.6211 86.7315 26.9545 86.7981 28.2878C86.8648 29.5878 87.0648 30.8378 87.3981 32.0378C87.7315 33.2378 88.3481 34.2378 89.2481 35.0378C90.4148 36.2045 91.8481 36.9378 93.5481 37.2378C94.4815 37.2378 95.5148 37.2711 96.6481 37.3378C97.7815 37.4378 98.8815 37.4378 99.9481 37.3378C101.015 37.2711 101.998 37.0711 102.898 36.7378C103.831 36.4045 104.581 35.8378 105.148 35.0378C105.481 34.7045 105.731 34.0878 105.898 33.1878C106.098 32.2878 106.248 31.2711 106.348 30.1378C106.481 29.0045 106.565 27.8211 106.598 26.5878C106.665 25.3545 106.715 24.2545 106.748 23.2878C106.715 22.1878 106.681 21.1211 106.648 20.0878C106.615 19.0211 106.531 18.0545 106.398 17.1878C106.265 16.2878 106.065 15.5045 105.798 14.8378C105.531 14.1711 105.165 13.6878 104.698 13.3878C103.998 12.7211 103.165 12.2211 102.198 11.8878C101.231 11.5211 100.215 11.3045 99.1481 11.2378C98.4481 11.1711 97.7815 11.1711 97.1481 11.2378C96.5481 11.2711 95.9148 11.2545 95.2481 11.1878C94.4481 11.1878 93.6481 11.2378 92.8481 11.3378C92.0815 11.4378 91.3481 11.6211 90.6481 11.8878C89.9815 12.1211 89.3815 12.4211 88.8481 12.7878C88.3481 13.1545 87.9815 13.5878 87.7481 14.0878ZM93.9981 19.9878C94.4315 19.4545 94.9981 19.0878 95.6981 18.8878C96.9981 18.5878 98.0481 18.7045 98.8481 19.2378C99.6481 19.7711 100.131 20.6211 100.298 21.7878C100.498 22.7545 100.548 23.7878 100.448 24.8878C100.381 25.9545 100.281 27.0211 100.148 28.0878C99.9481 28.9211 99.5648 29.4711 98.9981 29.7378C98.5648 29.9711 98.0148 30.1378 97.3481 30.2378C96.6815 30.3045 96.0315 30.2711 95.3981 30.1378C94.7981 29.9711 94.2815 29.6878 93.8481 29.2878C93.4148 28.8545 93.2148 28.2545 93.2481 27.4878C93.3148 26.3211 93.3481 25.2211 93.3481 24.1878C93.3481 23.1211 93.4148 22.0545 93.5481 20.9878C93.6481 20.4545 93.7981 20.1211 93.9981 19.9878Z" fill="white"/>
<path d="M71.4384 14.5878C71.4051 14.1211 71.3884 13.7045 71.3884 13.3378C71.4217 12.9711 71.4051 12.5045 71.3384 11.9378C71.3384 11.8378 71.2051 11.7878 70.9384 11.7878C70.6717 11.7545 70.3717 11.7545 70.0384 11.7878C69.7051 11.8211 69.3717 11.8711 69.0384 11.9378C68.7051 11.9711 68.4717 11.9878 68.3384 11.9878C67.9384 12.0211 67.6051 12.0545 67.3384 12.0878C67.0717 12.0878 66.8217 12.0878 66.5884 12.0878C66.3551 12.0878 66.1051 12.0878 65.8384 12.0878C65.5717 12.0545 65.2384 12.0211 64.8384 11.9878C64.7051 16.3878 64.6717 20.6378 64.7384 24.7378C64.8384 28.8378 64.8884 32.9378 64.8884 37.0378C65.6884 36.9711 66.3551 36.9545 66.8884 36.9878C67.4217 37.0211 67.9051 37.0378 68.3384 37.0378C68.7717 37.0711 69.1884 37.0711 69.5884 37.0378C70.0217 37.0045 70.5217 36.9045 71.0884 36.7378V36.5378C71.2217 35.4378 71.2884 34.3378 71.2884 33.2378C71.2884 32.1378 71.2551 31.0378 71.1884 29.9378C71.1551 28.8045 71.1217 27.6878 71.0884 26.5878C71.0551 25.4545 71.0717 24.3045 71.1384 23.1378C71.2051 22.2378 71.4384 21.5711 71.8384 21.1378C72.2384 20.6711 72.6884 20.3711 73.1884 20.2378C73.6884 20.0711 74.1884 20.0378 74.6884 20.1378C75.2217 20.2045 75.6217 20.3045 75.8884 20.4378C75.9217 20.4711 75.9551 20.4878 75.9884 20.4878C76.0217 20.4878 76.0551 20.5045 76.0884 20.5378C76.3551 20.7378 76.5551 21.0211 76.6884 21.3878C76.8551 21.7545 76.9717 22.1711 77.0384 22.6378C77.1384 23.1045 77.2051 23.5878 77.2384 24.0878C77.2717 24.5545 77.3051 24.9878 77.3384 25.3878C77.4051 26.2878 77.4384 27.2545 77.4384 28.2878C77.4717 29.3211 77.4717 30.3545 77.4384 31.3878C77.4384 32.4211 77.4384 33.4211 77.4384 34.3878C77.4384 35.3545 77.4717 36.2211 77.5384 36.9878C78.7051 36.9878 79.7384 36.9878 80.6384 36.9878C81.5717 37.0211 82.6217 36.9545 83.7884 36.7878C83.7217 35.6545 83.7051 34.3378 83.7384 32.8378C83.7717 31.3378 83.8051 29.7878 83.8384 28.1878C83.8717 26.5545 83.8884 24.9545 83.8884 23.3878C83.9217 21.7878 83.9051 20.3211 83.8384 18.9878C83.8051 17.6545 83.6884 16.5211 83.4884 15.5878C83.3217 14.6211 83.0717 13.9878 82.7384 13.6878C82.0384 13.0878 81.2551 12.6711 80.3884 12.4378C79.5217 12.2045 78.6217 12.1045 77.6884 12.1378C76.7884 12.1711 75.9051 12.3378 75.0384 12.6378C74.1717 12.9378 73.3884 13.3378 72.6884 13.8378C72.5217 13.9711 72.3051 14.1045 72.0384 14.2378C71.8051 14.3711 71.6051 14.4878 71.4384 14.5878Z" fill="white"/>
<path d="M49.9597 0.587795C49.5264 0.521127 49.0264 0.487793 48.4597 0.487793C47.8931 0.487793 47.2931 0.50446 46.6597 0.537793C46.0597 0.537793 45.4431 0.55446 44.8097 0.587795C44.2097 0.587795 43.6597 0.587795 43.1597 0.587795C43.1931 6.65446 43.1431 12.6711 43.0097 18.6378C42.8764 24.6045 42.9264 30.6878 43.1597 36.8878C43.6597 36.9545 44.2097 36.9878 44.8097 36.9878C45.4431 36.9878 46.0597 36.9711 46.6597 36.9378C47.2597 36.9045 47.8264 36.8878 48.3597 36.8878C48.9264 36.8545 49.3931 36.8545 49.7597 36.8878C49.8931 36.1545 49.9764 35.3545 50.0097 34.4878C50.0431 33.5878 50.0597 32.7045 50.0597 31.8378C50.0597 30.9711 50.0431 30.1378 50.0097 29.3378C49.9764 28.5378 49.9597 27.8378 49.9597 27.2378C50.5264 27.9711 51.0264 28.7378 51.4597 29.5378C51.9264 30.3378 52.3597 31.1545 52.7597 31.9878C53.1597 32.7878 53.5597 33.6045 53.9597 34.4378C54.3931 35.2711 54.8597 36.0878 55.3597 36.8878C55.8597 36.9878 56.4597 37.0545 57.1597 37.0878C57.8931 37.1211 58.6431 37.1211 59.4097 37.0878C60.1764 37.0545 60.9097 37.0045 61.6097 36.9378C62.3431 36.9045 62.9431 36.8878 63.4097 36.8878C62.1431 34.3211 60.7431 31.8545 59.2097 29.4878C57.7097 27.0878 56.2097 24.6711 54.7097 22.2378C56.1097 20.3711 57.5264 18.5211 58.9597 16.6878C60.3931 14.8211 61.7264 12.9378 62.9597 11.0378C62.4931 11.0045 61.8931 11.0211 61.1597 11.0878C60.4264 11.1211 59.6764 11.1545 58.9097 11.1878C58.1764 11.1878 57.4597 11.1878 56.7597 11.1878C56.0597 11.1545 55.4931 11.0545 55.0597 10.8878C54.5597 11.4545 54.1097 12.0545 53.7097 12.6878C53.3431 13.3211 52.9764 13.9545 52.6097 14.5878C52.2431 15.1878 51.8431 15.7878 51.4097 16.3878C51.0097 16.9878 50.5264 17.5378 49.9597 18.0378C49.8597 17.2711 49.8264 16.2711 49.8597 15.0378C49.9264 13.8045 49.9597 12.6378 49.9597 11.5378V0.587795Z" fill="white"/>
<path d="M26.843 24.3378C27.1764 24.4045 27.7097 24.4545 28.443 24.4878C29.1764 24.5211 29.993 24.5378 30.893 24.5378C31.8264 24.5378 32.793 24.5211 33.793 24.4878C34.793 24.4545 35.7264 24.4045 36.593 24.3378C37.493 24.2711 38.2597 24.2045 38.893 24.1378C39.5597 24.0711 40.0097 24.0045 40.243 23.9378C40.343 22.5378 40.343 21.1545 40.243 19.7878C40.143 18.4211 39.843 17.1711 39.343 16.0378C38.8764 14.9045 38.1764 13.9378 37.243 13.1378C36.3097 12.3378 35.0764 11.8045 33.543 11.5378C32.343 11.2378 31.1097 11.1045 29.843 11.1378C28.5764 11.1711 27.3764 11.3711 26.243 11.7378C25.1097 12.0711 24.093 12.5878 23.193 13.2878C22.293 13.9545 21.6264 14.7711 21.193 15.7378C20.793 16.8378 20.5264 17.9711 20.393 19.1378C20.293 20.2711 20.193 21.4545 20.093 22.6878C20.0264 24.0545 20.0597 25.4211 20.193 26.7878C20.3264 28.1545 20.5764 29.4545 20.943 30.6878C21.3097 31.8878 21.793 33.0045 22.393 34.0378C22.993 35.0378 23.743 35.8545 24.643 36.4878C25.443 36.9545 26.3097 37.2545 27.243 37.3878C28.1764 37.3878 29.193 37.4211 30.293 37.4878C31.4264 37.5545 32.5264 37.5545 33.593 37.4878C34.6597 37.4211 35.643 37.2211 36.543 36.8878C37.443 36.5545 38.1764 35.9878 38.743 35.1878C38.9764 34.9878 39.1597 34.6378 39.293 34.1378C39.4597 33.6045 39.593 32.9878 39.693 32.2878C39.793 31.5545 39.8764 30.7711 39.943 29.9378C40.0097 29.1045 40.0764 28.2545 40.143 27.3878C39.7764 27.2878 39.3097 27.2378 38.743 27.2378C38.1764 27.2045 37.5764 27.2045 36.943 27.2378C36.343 27.2711 35.7597 27.3045 35.193 27.3378C34.6264 27.3378 34.1764 27.3211 33.843 27.2878C33.9097 28.6545 33.693 29.6878 33.193 30.3878C32.7264 31.0545 32.143 31.4545 31.443 31.5878C30.743 31.7211 30.0264 31.6045 29.293 31.2378C28.5597 30.8711 27.993 30.3045 27.593 29.5378C27.2264 28.9378 27.0097 28.3211 26.943 27.6878C26.9097 27.0545 26.8764 26.2378 26.843 25.2378V24.3378ZM32.893 16.5878C33.493 16.8878 33.9597 17.3378 34.293 17.9378C34.6597 18.5378 34.843 19.1711 34.843 19.8378C34.843 20.1045 34.843 20.2878 34.843 20.3878C34.843 20.4545 34.743 20.5045 34.543 20.5378C34.3764 20.5378 34.0764 20.5211 33.643 20.4878C33.2097 20.4545 32.5597 20.4378 31.693 20.4378C30.4264 20.4378 29.4597 20.4545 28.793 20.4878C28.1597 20.4878 27.693 20.4711 27.393 20.4378C27.093 20.3711 26.9264 20.2711 26.893 20.1378C26.893 19.9711 26.9264 19.7045 26.993 19.3378C27.0597 18.9045 27.1597 18.4878 27.293 18.0878C27.4597 17.6878 27.693 17.3378 27.993 17.0378C28.293 16.7378 28.693 16.5045 29.193 16.3378C29.693 16.1711 30.343 16.0878 31.143 16.0878C31.5097 16.0878 31.8264 16.1378 32.093 16.2378C32.3597 16.3045 32.6264 16.4211 32.893 16.5878Z" fill="white"/>
<path d="M21.3559 2.13779C17.9226 1.77113 14.3893 1.60446 10.7559 1.6378C7.15593 1.6378 3.65593 1.65446 0.255933 1.68779C0.255933 1.72113 0.255933 1.7378 0.255933 1.7378C0.289266 1.7378 0.305933 1.75446 0.305933 1.7878C0.239266 2.5878 0.205933 3.42113 0.205933 4.2878C0.205933 5.15446 0.205933 5.97113 0.205933 6.73779C0.239266 7.47113 0.272599 8.10446 0.305933 8.6378C0.372599 9.17113 0.439266 9.50446 0.505933 9.6378C0.705933 9.70446 1.05593 9.73779 1.55593 9.73779C2.05593 9.73779 2.60593 9.75446 3.20593 9.7878C3.80593 9.7878 4.40593 9.82113 5.00593 9.8878C5.60593 9.92113 6.10593 10.0378 6.50593 10.2378L6.55593 10.2878C6.75593 14.9545 6.8726 18.9378 6.90593 22.2378C6.9726 25.5378 6.98927 28.2545 6.95593 30.3878C6.95593 32.4878 6.93927 34.0711 6.90593 35.1378C6.8726 36.2045 6.8726 36.8045 6.90593 36.9378C7.50593 36.8378 8.15593 36.7878 8.85593 36.7878C9.55593 36.7878 10.2559 36.7878 10.9559 36.7878C11.6893 36.7878 12.4059 36.7878 13.1059 36.7878C13.8393 36.7545 14.5059 36.6878 15.1059 36.5878V36.5378V36.4878C15.0393 32.8545 14.9893 29.7045 14.9559 27.0378C14.9226 24.3378 14.8893 22.0378 14.8559 20.1378C14.8226 18.2045 14.7893 16.6378 14.7559 15.4378C14.7559 14.2045 14.7559 13.2211 14.7559 12.4878C14.7559 11.7211 14.7559 11.1711 14.7559 10.8378C14.7893 10.4711 14.8226 10.2045 14.8559 10.0378C14.8559 10.0045 14.8559 9.9878 14.8559 9.9878C14.8893 9.95446 14.9059 9.92113 14.9059 9.8878H14.9559H15.0559C16.6226 9.82113 17.8726 9.77113 18.8059 9.73779C19.7393 9.70446 20.5226 9.75446 21.1559 9.8878C21.3226 8.6878 21.4059 7.37113 21.4059 5.9378C21.4393 4.50446 21.4226 3.23779 21.3559 2.13779Z" fill="white"/>
</svg>
